<?xml version="1.0" standalone="no"?>
<!DOCTYPE svg PUBLIC "-//W3C//DTD SVG 20010904//EN"
 "http://www.w3.org/TR/2001/REC-SVG-20010904/DTD/svg10.dtd">
<svg version="1.0" xmlns="http://www.w3.org/2000/svg"
 width="64.000000pt" height="64.000000pt" viewBox="0 0 64.000000 64.000000"
 preserveAspectRatio="xMidYMid meet">
<metadata>
Created by potrace 1.11, written by Peter Selinger 2001-2013
</metadata>
<g transform="translate(0.000000,64.000000) scale(0.100000,-0.100000)"
fill="#000000" stroke="none">
<path d="M260 630 c0 -5 8 -10 18 -11 9 -1 -8 -7 -38 -15 -35 -8 -79 -11 -122
-7 -59 5 -68 4 -69 -11 -1 -9 -2 -22 -3 -28 -1 -8 -12 -12 -26 -11 -23 2 -23
2 -5 -6 11 -5 61 -10 112 -10 88 -1 198 -26 262 -60 11 -6 64 -17 118 -25 54
-8 106 -17 116 -21 16 -7 17 2 17 104 l0 111 -190 0 c-120 0 -190 -4 -190 -10z"/>
<path d="M0 249 l0 -249 320 0 320 0 0 109 c0 122 5 113 -77 126 -23 4 -58 19
-78 35 -20 16 -50 32 -68 35 -18 4 -53 20 -78 36 -25 16 -72 38 -104 49 -33
11 -68 29 -80 39 -26 24 -56 39 -111 56 l-44 13 0 -249z"/>
</g>
</svg>
